<?xml version="1.0" encoding="UTF-8" standalone="no"?>
<svg
   xmlns:dc="http://purl.org/dc/elements/1.1/"
   xmlns:cc="http://creativecommons.org/ns#"
   xmlns:rdf="http://www.w3.org/1999/02/22-rdf-syntax-ns#"
   xmlns:svg="http://www.w3.org/2000/svg"
   xmlns="http://www.w3.org/2000/svg"
   xmlns:sodipodi="http://sodipodi.sourceforge.net/DTD/sodipodi-0.dtd"
   xmlns:inkscape="http://www.inkscape.org/namespaces/inkscape"
   version="1.1"
   id="svg2"
   xml:space="preserve"
   width="1479.3467"
   height="253.90668"
   viewBox="0 0 1479.3467 253.90668"
   sodipodi:docname="coachingspache_logo_blue_rgb.eps"><metadata
     id="metadata8"><rdf:RDF><cc:Work
         rdf:about=""><dc:format>image/svg+xml</dc:format><dc:type
           rdf:resource="http://purl.org/dc/dcmitype/StillImage" /></cc:Work></rdf:RDF></metadata><defs
     id="defs6"><clipPath
       clipPathUnits="userSpaceOnUse"
       id="clipPath48"><path
         d="M 1269.17,766.602 C 1199.09,647.121 1063.41,570.762 911.566,587.051 742.379,605.199 605.871,741.199 587.184,910.332 c -24.485,221.598 148.347,409.138 364.984,409.138 135.752,0 254.282,-73.66 317.852,-183.18 14.3,-24.65 43.13,-36.86 70.6,-29.25 l 262.42,72.69 C 1523.99,1546.68 1257.3,1788.79 769.461,1570.34 418.098,1413.01 132.734,1215.49 233.254,843.871 333.77,472.238 761.84,78.7305 1133.46,179.25 c 264.79,71.621 417.08,280.41 471.61,533.332 l -263.53,82.379 c -27.8,8.687 -57.63,-3.242 -72.37,-28.359 z"
         id="path46" /></clipPath><linearGradient
       x1="0"
       y1="0"
       x2="1"
       y2="0"
       gradientUnits="userSpaceOnUse"
       gradientTransform="matrix(52.1055,1492.11,1492.11,-52.1055,884.967,167.44)"
       spreadMethod="pad"
       id="linearGradient54"><stop
         style="stop-opacity:1;stop-color:#f98d2b"
         offset="0"
         id="stop50" /><stop
         style="stop-opacity:1;stop-color:#faf041"
         offset="1"
         id="stop52" /></linearGradient></defs><sodipodi:namedview
     pagecolor="#ffffff"
     bordercolor="#666666"
     borderopacity="1"
     objecttolerance="10"
     gridtolerance="10"
     guidetolerance="10"
     inkscape:pageopacity="0"
     inkscape:pageshadow="2"
     inkscape:window-width="640"
     inkscape:window-height="480"
     id="namedview4" /><g
     id="g10"
     inkscape:groupmode="layer"
     inkscape:label="ink_ext_XXXXXX"
     transform="matrix(1.3333333,0,0,-1.3333333,0,253.90667)"><g
       id="g12"
       transform="scale(0.1)"><path
         d="m 3516.28,718.801 c 120.29,0 187.13,80.211 187.13,227.23 0,147.019 -66.84,227.229 -187.13,227.229 -120.3,0 -187.12,-80.21 -187.12,-227.229 0,-147.019 66.82,-227.23 187.12,-227.23 z m 0,574.749 c 200.49,0 320.79,-133.67 320.79,-347.519 0,-213.859 -120.3,-347.519 -320.79,-347.519 -200.49,0 -320.79,133.66 -320.79,347.519 0,213.849 120.3,347.519 320.79,347.519"
         style="fill:#140d69;fill-opacity:1;fill-rule:nonzero;stroke:none"
         id="path14" /><path
         d="m 5872.71,611.879 h -88.03 c -6.05,0 -11.86,2.41 -16.13,6.691 h -0.01 c -4.27,4.282 -6.67,10.078 -6.67,16.121 v 378.169 c 0,80.19 -26.73,160.4 -133.67,160.4 -106.92,0 -173.75,-53.48 -173.75,-213.862 V 634.699 c 0,-6.051 -2.41,-11.847 -6.68,-16.129 l -0.01,-0.011 c -4.28,-4.278 -10.08,-6.68 -16.13,-6.68 h -88.03 c -6.05,0 -11.86,2.402 -16.14,6.68 v 0.011 c -4.28,4.282 -6.68,10.078 -6.68,16.129 v 889.991 c 0,6.05 2.4,11.86 6.69,16.13 v 0 c 4.27,4.28 10.07,6.68 16.12,6.68 h 88.04 c 6.05,0 11.85,-2.4 16.12,-6.67 l 0.01,-0.01 c 4.28,-4.27 6.69,-10.08 6.69,-16.13 0,0 0,-311.24 0,-311.35 -0.07,-4.72 9.29,-6.49 13.36,0 0.12,0.21 53.47,80.21 173.77,80.21 200.48,0 253.94,-133.67 253.94,-280.69 V 634.691 c 0,-6.043 -2.4,-11.839 -6.67,-16.121 v 0 c -4.28,-4.281 -10.09,-6.691 -16.14,-6.691"
         style="fill:#140d69;fill-opacity:1;fill-rule:nonzero;stroke:none"
         id="path16" /><path
         d="m 6166.78,611.879 h -88.02 c -6.05,0 -11.86,2.402 -16.13,6.68 l -0.01,0.011 c -4.28,4.282 -6.68,10.078 -6.68,16.129 v 622.661 c 0,6.06 2.4,11.87 6.69,16.14 v 0 c 4.28,4.28 10.08,6.68 16.12,6.68 h 88.04 c 6.04,0 11.84,-2.4 16.12,-6.68 v 0 c 4.29,-4.27 6.69,-10.08 6.69,-16.14 V 634.699 c 0,-6.051 -2.4,-11.847 -6.68,-16.129 l -0.01,-0.011 c -4.28,-4.278 -10.08,-6.68 -16.13,-6.68 z m 0.01,775.241 h -88.04 c -6.04,0 -11.84,2.4 -16.12,6.67 v 0 c -4.29,4.28 -6.69,10.09 -6.69,16.14 v 88.02 c 0,6.06 2.4,11.87 6.69,16.14 v 0 c 4.28,4.28 10.08,6.68 16.12,6.68 h 88.04 c 6.04,0 11.84,-2.4 16.12,-6.68 v 0 c 4.29,-4.27 6.69,-10.08 6.69,-16.14 v -88.02 c 0,-6.05 -2.4,-11.86 -6.69,-16.14 v 0 c -4.28,-4.27 -10.08,-6.67 -16.12,-6.67"
         style="fill:#140d69;fill-opacity:1;fill-rule:nonzero;stroke:none"
         id="path18" /><path
         d="m 7339.1,1173.26 c -106.93,0 -173.75,-80.21 -173.75,-227.229 0,-147.019 66.82,-227.23 173.75,-227.23 106.94,0 173.76,66.828 173.76,227.23 0,160.389 -66.82,227.229 -173.76,227.229 z m 173.76,-494.549 c 0.04,5.16 -8.81,6.32 -13.36,0 -0.17,-0.242 -53.46,-80.199 -173.75,-80.199 -187.15,0 -294.07,147.039 -294.07,347.519 0,200.479 106.92,347.519 294.07,347.519 113,0 165.6,-70.05 173.75,-80.21 3.84,-4.77 11.69,-5.79 13.36,0 0.04,0.02 9,35.98 12,47.98 0.9,3.6 3.64,9.25 7.68,12.96 3.5,3.21 10.11,5.9 15.54,5.9 h 76.61 c 5.43,0 11.54,-3.19 14.48,-6 4.64,-4.45 7.51,-9.68 7.36,-15.84 V 692.07 c 0,-267.32 -147.03,-360.879 -307.43,-360.879 -155.19,0 -247.82,75.09 -265.76,176.809 -1.14,6.449 0.9,12.969 5.81,17.68 3.56,3.429 9.05,6.011 14.48,6.011 h 89.96 c 5.44,0 11.38,-2.601 15.57,-6.062 2.13,-1.758 6.75,-8.277 7.66,-10.027 26.73,-51.204 66.6,-64.122 132.28,-64.122 120.3,0 172.65,82.68 173.76,227.231"
         style="fill:#140d69;fill-opacity:1;fill-rule:nonzero;stroke:none"
         id="path20" /><path
         d="m 8034.17,598.512 c -169.93,0 -263.16,76.707 -267.18,217.609 -0.18,6.098 2.3,12.039 6.62,16.379 4.31,4.34 9.93,6.609 15.87,6.609 h 88.4 c 5.93,0 11.62,-2.359 15.82,-6.558 l 0.58,-0.582 c 4,-4.008 6.15,-9.418 6.47,-15.071 3.46,-61.519 44.06,-98.097 133.42,-98.097 93.57,0 133.67,26.75 133.67,80.211 0,66.828 -40.1,80.187 -173.77,106.918 -133.65,26.746 -213.86,80.199 -213.86,200.49 0,93.57 66.83,187.13 253.96,187.13 143.43,0 248.7,-63.6 253.77,-190.8 0.25,-6.15 -3.01,-13.06 -6.63,-16.52 -4.36,-4.16 -9.88,-6.54 -15.8,-6.54 h -88.42 c -5.92,0 -11.96,2.96 -15.8,6.54 -3.83,3.58 -6.48,7.51 -7.54,16.02 -4.61,37.18 -32.15,71.01 -119.58,71.01 -66.83,0 -120.29,-13.38 -120.29,-66.84 0,-66.83 53.46,-80.2 187.13,-106.936 133.65,-26.726 200.48,-80.183 200.48,-200.472 0,-106.942 -80.19,-200.5 -267.32,-200.5"
         style="fill:#140d69;fill-opacity:1;fill-rule:nonzero;stroke:none"
         id="path22" /><path
         d="m 8729.21,1173.26 c -106.92,0 -173.76,-66.84 -173.76,-227.229 0,-160.402 66.84,-227.23 173.76,-227.23 106.94,0 173.77,80.211 173.77,227.23 0,147.019 -66.83,227.229 -173.77,227.229 z m 13.37,-574.748 c -120.29,0 -169.79,75.527 -173.75,80.199 -4.67,5.5 -12.93,4.758 -13.38,0 -0.01,-0.152 0,-311.34 0,-311.34 0,-6.051 -2.57,-11.711 -6.69,-16.141 -3.7,-3.968 -10.07,-6.671 -16.12,-6.671 h -88.04 c -6.04,0 -11.96,2.222 -16.12,6.671 -4.81,5.149 -6.69,10.09 -6.69,16.141 v 889.989 c 0,6.06 2.32,12.11 6.69,16.14 4.55,4.22 10.08,6.68 16.12,6.68 h 74.67 c 6.05,0 13.37,-3.99 16.14,-6.68 3.19,-3.12 6.82,-7.2 8.2,-12.81 0,0 11.82,-47.26 11.84,-47.35 1.15,-3.59 10.22,-4.8 13.38,0 0.04,0.07 53.46,80.21 173.75,80.21 187.13,0 294.05,-147.04 294.05,-347.519 0,-200.48 -106.92,-347.519 -294.05,-347.519"
         style="fill:#140d69;fill-opacity:1;fill-rule:nonzero;stroke:none"
         id="path24" /><path
         d="m 10106,718.801 c 103.4,0 143.2,50.371 159,101.699 1.8,5.93 3.8,9.25 7.6,13.039 3.8,3.801 10.2,5.57 15.7,5.57 h 89.8 c 5.5,0 10.3,-1.91 14.6,-6.07 4.2,-4.008 7,-11.109 6,-17.539 -17.4,-116.059 -110.9,-216.988 -292.7,-216.988 -200.51,0 -320.81,133.66 -320.81,347.519 0,213.849 120.3,347.519 320.81,347.519 181.8,0 275.3,-100.93 292.7,-216.98 1,-6.44 -1.8,-13.77 -6,-17.55 -4.1,-3.79 -9.1,-6.06 -14.6,-6.06 h -89.8 c -5.5,0 -12.6,2.52 -16.1,5.86 -3.5,3.34 -6.3,9.31 -7.2,12.75 -14.7,51.65 -55.6,101.69 -159,101.69 -120.32,0 -187.16,-80.21 -187.16,-227.229 0,-147.019 66.84,-227.23 187.16,-227.23"
         style="fill:#140d69;fill-opacity:1;fill-rule:nonzero;stroke:none"
         id="path26" /><path
         d="m 2821.23,718.801 c 103.44,0 143.22,50.371 159,101.699 1.82,5.93 3.81,9.25 7.63,13.039 3.83,3.801 10.22,5.57 15.72,5.57 h 89.76 c 5.49,0 10.76,-2.179 14.65,-6.07 l 0.01,-0.008 c 4.59,-4.59 6.92,-11.101 5.96,-17.531 -17.44,-116.059 -110.93,-216.988 -292.73,-216.988 -200.49,0 -320.78,133.66 -320.78,347.519 0,213.849 120.29,347.519 320.78,347.519 181.8,0 275.28,-100.93 292.72,-216.98 0.97,-6.44 -1.36,-12.95 -5.96,-17.55 v 0 c -3.89,-3.88 -9.15,-6.06 -14.65,-6.06 h -89.77 c -5.49,0 -12.62,2.52 -16.14,5.86 -3.52,3.34 -6.23,9.31 -7.21,12.75 -14.66,51.65 -55.56,101.69 -158.99,101.69 -120.3,0 -187.13,-80.21 -187.13,-227.229 0,-147.019 66.83,-227.23 187.13,-227.23"
         style="fill:#140d69;fill-opacity:1;fill-rule:nonzero;stroke:none"
         id="path28" /><path
         d="m 4903.69,718.801 c 103.44,0 143.22,50.371 159,101.699 1.82,5.93 3.81,9.25 7.63,13.039 3.83,3.801 10.22,5.57 15.72,5.57 h 89.76 c 5.49,0 10.76,-2.179 14.65,-6.07 v -0.008 c 4.6,-4.59 6.93,-11.101 5.96,-17.531 -17.43,-116.059 -110.92,-216.988 -292.72,-216.988 -200.49,0 -320.79,133.66 -320.79,347.519 0,213.849 120.3,347.519 320.79,347.519 181.79,0 275.28,-100.93 292.72,-216.98 0.97,-6.44 -1.36,-12.95 -5.96,-17.55 v 0 c -3.89,-3.88 -9.16,-6.06 -14.65,-6.06 h -89.77 c -5.49,0 -12.62,2.52 -16.14,5.86 -3.52,3.34 -6.23,9.31 -7.21,12.75 -14.66,51.65 -55.56,101.69 -158.99,101.69 -120.3,0 -187.13,-80.21 -187.13,-227.229 0,-147.019 66.83,-227.23 187.13,-227.23"
         style="fill:#140d69;fill-opacity:1;fill-rule:nonzero;stroke:none"
         id="path30" /><path
         d="m 10947.8,1021.59 c -2.1,46.59 -22.9,151.34 -160.1,151.34 -137.2,0 -158.1,-104.75 -160.2,-151.34 -0.3,-5.73 2.6,-12.75 7.1,-16.43 3.3,-2.6 8.8,-5.957 14.5,-6.004 h 277.1 c 5.4,0 10.4,2.014 14.5,6.004 5.8,5.77 7.4,10.7 7.1,16.43 z m -467.6,-75.887 c 0,187.117 93.6,347.517 307.5,347.517 213.8,0 307.4,-160.4 307.4,-347.517 v -31.617 c 0,-5.434 -2.4,-11.375 -7.4,-15.856 -5.3,-4.679 -9,-5.992 -14.5,-5.992 h -424.1 c -5.4,0 -10.7,-2.258 -15.5,-6.988 -4.1,-4.16 -6.4,-10.031 -5.9,-16 3.2,-40.051 27.3,-150.781 173.3,-150.781 52.5,0 105.1,12.871 132.2,76.601 1.4,3.282 4,7.871 8.4,11.071 3.7,2.699 9.5,5.898 14.9,5.898 h 90 c 5.4,0 10.6,-2.16 14.5,-6 v 0 c 4.6,-4.629 6.9,-11.219 5.8,-17.66 -17.9,-102.57 -110.6,-190.199 -265.8,-190.199 -213.8,0 -320.8,147.039 -320.8,347.523"
         style="fill:#140d69;fill-opacity:1;fill-rule:nonzero;stroke:none"
         id="path32" /><path
         d="m 6901.91,611.879 h -88.02 c -6.05,0 -11.86,2.41 -16.14,6.691 v 0 c -4.27,4.282 -6.67,10.078 -6.67,16.121 v 378.169 c 0,66.83 -13.37,160.4 -133.67,160.4 -120.29,0 -173.76,-66.84 -173.76,-227.229 V 634.699 c 0,-6.051 -2.4,-11.847 -6.68,-16.129 l -0.01,-0.011 c -4.27,-4.278 -10.08,-6.68 -16.13,-6.68 h -88.02 c -6.05,0 -11.85,2.402 -16.13,6.68 l -0.01,0.011 c -4.28,4.282 -6.68,10.078 -6.68,16.129 v 622.661 c 0,6.06 2.4,11.87 6.69,16.14 v 0 c 4.28,4.28 10.08,6.68 16.12,6.68 h 75.09 c 6.51,0.08 12.41,-2.84 16.26,-6.66 3.78,-3.75 7.1,-8.79 8.08,-12.83 0,0 11.4,-47.25 11.42,-47.35 0.75,-3.12 9.18,-5.65 13.36,0 0.06,0.09 53.48,80.21 173.77,80.21 187.13,0 253.95,-120.29 253.95,-280.69 V 634.691 c 0,-6.043 -2.4,-11.839 -6.67,-16.121 v 0 c -4.28,-4.281 -10.09,-6.691 -16.15,-6.691"
         style="fill:#140d69;fill-opacity:1;fill-rule:nonzero;stroke:none"
         id="path34" /><path
         d="m 9544.57,849.641 c 0,-80.192 -66.83,-133.672 -173.77,-133.672 -80.19,0 -120.29,26.75 -120.29,93.57 0,66.832 53.47,106.938 173.77,106.938 55.17,0 92.04,-9.454 103.34,-12.297 6.37,-1.61 11.22,-4.77 13.37,-7.84 2.36,-3.371 3.37,-8.43 3.58,-12.629 z M 9678.22,1000 c 0,201.7 -73.52,290.5 -267.31,290.5 -204.91,0 -264.54,-110.2 -267.22,-194 0.31,-6.76 3.41,-10.66 6.67,-13.7 3.52,-3.28 8.75,-5.93 12.61,-5.93 h 94.88 c 5.13,0.37 10.09,2.5 13.59,5.52 4.06,3.5 5.7,9.01 5.96,13.54 1.53,27.11 14.14,46.62 40.1,58.93 20.55,9.67 53.18,15.34 93.41,15.34 93.56,0 133.66,-26.74 133.66,-120.29 v -20.29 c 0,0 0.21,6.1 0,-0.2 -0.21,-6.3 -4.41,-10.71 -7.71,-13.73 -3.29,-3.02 -8.43,-4.97 -13.21,-3.96 -17,3.6 -60.84,11.66 -112.74,11.66 -173.76,0 -294.06,-66.82 -294.06,-213.851 0,-133.648 80.2,-213.859 227.22,-213.859 133.67,0 187.16,80.058 187.13,80.211 3.72,4.988 12.15,3.64 13.37,0 0.51,-0.852 8.14,-35.711 11.83,-47.332 1.64,-5.161 4.19,-8.989 8.22,-12.829 3.98,-3.789 10.08,-6.679 16.13,-6.679 h 74.66 c 6.05,0 11.86,2.41 16.14,6.687 4.27,4.282 6.68,10.082 6.68,16.133 L 9678.22,1000"
         style="fill:#140d69;fill-opacity:1;fill-rule:nonzero;stroke:none"
         id="path36" /><path
         d="m 4344.8,849.641 c 0,-80.192 -66.83,-133.672 -173.77,-133.672 -80.19,0 -120.29,26.75 -120.29,93.57 0,66.832 53.47,106.938 173.77,106.938 55.17,0 92.04,-9.454 103.34,-12.297 6.37,-1.61 11.22,-4.77 13.37,-7.84 2.36,-3.371 3.37,-8.43 3.58,-12.629 z M 4478.46,1000 c 0,201.7 -73.53,290.5 -267.32,290.5 -204.91,0 -264.54,-110.2 -267.22,-194 0.31,-6.76 3.41,-10.66 6.67,-13.7 3.52,-3.28 8.75,-5.93 12.61,-5.93 h 94.88 c 5.13,0.37 10.09,2.5 13.59,5.52 4.06,3.5 5.7,9.01 5.96,13.54 1.53,27.11 14.15,46.62 40.11,58.93 20.54,9.67 53.18,15.34 93.4,15.34 93.56,0 133.66,-26.74 133.66,-120.29 v -20.29 c 0,0 0.22,6.1 0,-0.2 -0.21,-6.3 -4.41,-10.71 -7.71,-13.73 -3.29,-3.02 -8.42,-4.97 -13.21,-3.96 -17,3.6 -60.84,11.66 -112.74,11.66 -173.76,0 -294.05,-66.82 -294.05,-213.851 0,-133.648 80.19,-213.859 227.21,-213.859 133.67,0 187.16,80.058 187.13,80.211 3.72,4.988 12.15,3.64 13.37,0 0.51,-0.852 8.14,-35.711 11.83,-47.332 1.64,-5.161 4.19,-8.989 8.22,-12.829 3.99,-3.789 10.08,-6.679 16.14,-6.679 h 74.65 c 6.06,0 11.86,2.41 16.14,6.687 4.28,4.282 6.68,10.082 6.68,16.133 V 1000"
         style="fill:#140d69;fill-opacity:1;fill-rule:nonzero;stroke:none"
         id="path38" /><path
         d="m 1791.05,1231.8 c 36.31,10.06 55.1,49.71 40.64,84.5 -151.06,363.58 -520.97,614.16 -944.542,585.86 C 408.02,1870.16 24.1797,1478.55 1.125,998.91 -25.1289,452.73 411.645,0 952.164,0 1341.65,0 1677.09,235.141 1824.4,570.859 c 15.02,34.223 -2.49,73.942 -38.16,85.09 l -181.17,56.633 C 1550.54,459.66 1398.25,250.871 1133.46,179.25 761.836,78.7305 333.77,472.238 233.254,843.871 132.734,1215.49 418.098,1413.01 769.461,1570.34 1257.3,1788.79 1523.99,1546.68 1603.04,1179.73 l 188.01,52.07"
         style="fill:#140d69;fill-opacity:1;fill-rule:nonzero;stroke:none"
         id="path40" /><g
         id="g42"><g
           id="g44"
           clip-path="url(#clipPath48)"><path
             d="M 1269.17,766.602 C 1199.09,647.121 1063.41,570.762 911.566,587.051 742.379,605.199 605.871,741.199 587.184,910.332 c -24.485,221.598 148.347,409.138 364.984,409.138 135.752,0 254.282,-73.66 317.852,-183.18 14.3,-24.65 43.13,-36.86 70.6,-29.25 l 262.42,72.69 C 1523.99,1546.68 1257.3,1788.79 769.461,1570.34 418.098,1413.01 132.734,1215.49 233.254,843.871 333.77,472.238 761.84,78.7305 1133.46,179.25 c 264.79,71.621 417.08,280.41 471.61,533.332 l -263.53,82.379 c -27.8,8.687 -57.63,-3.242 -72.37,-28.359"
             style="fill:url(#linearGradient54);fill-opacity:1;fill-rule:nonzero;stroke:none"
             id="path56" /></g></g></g></g></svg>
